PathFileType	4	(X/Y/Z)	C:\Users\dbl\Desktop\20210112(1)\20210112\bx_y_5_501.trc
DataRate	CameraRate	NumFrames	NumMarkers	Units	OrigDataRate	OrigDataStartFrame	OrigNumFrames
50.00	50.00	       5	43	mm	50.00	65	       519
Frame#	Time	Top.Head			R.Acromium			L.Acromium			Sternum			R.ASIS			L.ASIS			V.Sacral			R.Thigh.Upper			R.Thigh.Front			R.Thigh.Rear			R.Knee.Lat			R.Knee.Med			R.Shank.Upper			R.Shank.Front			R.Shank.Rear			R.Ankle.Lat			R.Midfoot.Lat			R.Toe.Lat			R.Toe.Tip			R.Toe.Med			R.Ankle.Med			R.Midfoot.Sup			R.Heel			L.Thigh.Upper			L.Thigh.Front			L.Thigh.Rear			L.Knee.Lat			L.Knee.Med			L.Shank.Upper			L.Shank.Front			L.Shank.Rear			L.Ankle.Lat			L.Midfoot.Lat			L.Toe.Lat			L.Toe.Tip			L.Toe.Med			L.Ankle.Med			L.Midfoot.Sup			L.Heel			origin1 front left			origin2 front right			origin 3 back right			origin 4 back leftt			
		X1	Y1	Z1	X2	Y2	Z2	X3	Y3	Z3	X4	Y4	Z4	X5	Y5	Z5	X6	Y6	Z6	X7	Y7	Z7	X8	Y8	Z8	X9	Y9	Z9	X10	Y10	Z10	X11	Y11	Z11	X12	Y12	Z12	X13	Y13	Z13	X14	Y14	Z14	X15	Y15	Z15	X16	Y16	Z16	X17	Y17	Z17	X18	Y18	Z18	X19	Y19	Z19	X20	Y20	Z20	X21	Y21	Z21	X22	Y22	Z22	X23	Y23	Z23	X24	Y24	Z24	X25	Y25	Z25	X26	Y26	Z26	X27	Y27	Z27	X28	Y28	Z28	X29	Y29	Z29	X30	Y30	Z30	X31	Y31	Z31	X32	Y32	Z32	X33	Y33	Z33	X34	Y34	Z34	X35	Y35	Z35	X36	Y36	Z36	X37	Y37	Z37	X38	Y38	Z38	X39	Y39	Z39	X40	Y40	Z40	X41	Y41	Z41	X42	Y42	Z42	X43	Y43	Z43	

65	1.280	-381.43137	122.47243	1752.21509	-538.15027	-58.08485	1516.01587	-586.06738	282.34067	1511.60852	-535.45050	108.05019	1367.22058	-675.28949	-7.59905	1042.18176	-672.62329	214.42528	1056.73157	-874.27380	92.33828	1062.24487	-728.54181	-69.03488	855.78693	-666.77319	-6.91890	805.86102	-754.46368	-56.83290	703.53003	-760.14771	-31.40723	613.14502	-742.84808	77.55591	572.15668	-767.21118	-27.96908	565.24426	-712.48767	15.88262	523.79846	-805.43292	-37.77147	481.84094	-771.75397	-6.50920	203.43646	-666.49030	-68.03651	161.27202	-624.87085	-78.17175	159.28429	-563.65784	-42.74825	163.20825	-604.01324	18.19898	167.49051	-721.58331	75.69624	218.41972	-675.25220	54.89389	159.28043	-795.48993	55.58324	173.73531	-727.73212	280.52350	875.91156	-670.66266	213.02979	824.66705	-768.35864	277.84085	743.94330	-785.71753	250.29903	632.96564	-743.07123	142.92157	572.38599	-781.03436	245.67279	571.80688	-722.72009	204.99559	535.62524	-814.89148	256.29248	495.73907	-774.91467	224.66379	202.38628	-667.56116	300.09778	158.67104	-629.65137	307.90814	161.16063	-562.76300	263.04172	165.70729	-596.11145	224.95952	174.92851	-716.22559	155.39955	218.80826	-676.10382	173.87886	159.55801	-797.93561	174.00070	182.66066	-528.16199	303.96771	146.07181	-517.83533	-72.84464	142.45677	-875.82788	-79.00719	141.13901	-882.50629	296.04843	144.47957	
66	1.300	-370.76672	122.30815	1743.52515	-530.86322	-58.00114	1509.65723	-578.17902	282.20422	1506.16809	-532.34814	108.23877	1361.77332	-679.19440	-8.71543	1042.17407	-676.02930	213.74017	1055.68494	-877.51434	92.13360	1062.64124	-732.11847	-69.39642	855.74072	-670.29779	-7.13100	805.81189	-757.50403	-57.24464	703.35883	-762.68237	-31.52050	612.78314	-744.89337	77.35453	572.12469	-769.47437	-28.13202	565.06641	-714.34192	15.67070	523.92096	-807.24774	-37.95060	481.56226	-772.00916	-6.73615	203.33801	-666.50073	-68.07980	161.24330	-624.87592	-78.21434	159.16095	-563.67444	-42.53384	163.11122	-603.97144	18.21468	167.47960	-721.84784	75.54066	218.61797	-675.42487	54.79731	159.57823	-795.55835	55.40014	173.72060	-730.82043	280.23666	875.71100	-673.90796	212.60806	824.48718	-771.34625	277.57257	743.59583	-787.99213	250.09412	632.61700	-744.99292	142.73944	572.22882	-782.90833	245.49246	571.66290	-724.41046	204.80515	535.61700	-816.37811	256.27847	495.32645	-774.99286	224.68599	202.28134	-667.54712	300.13797	158.65050	-629.62085	307.95587	161.19429	-562.70233	262.85855	165.68614	-596.12207	224.90765	174.68401	-716.25146	155.45340	218.84186	-676.10632	173.90236	159.65683	-797.98535	173.87135	182.71318	-528.15704	303.98749	146.08850	-517.82343	-72.95895	142.54794	-875.81573	-78.99181	141.15981	-882.40222	296.13983	144.50786	
67	1.320	-360.38138	122.16892	1734.62817	-523.51245	-57.91182	1502.91968	-570.25549	282.08160	1500.47925	-529.60602	108.31620	1356.20459	-682.83344	-9.64680	1042.05115	-679.27814	213.14981	1054.58313	-880.72870	92.00269	1063.02417	-735.64545	-69.85807	855.82190	-673.85901	-7.45248	805.74615	-760.65588	-57.75301	703.25037	-765.29425	-31.69192	612.49158	-746.89624	77.13646	572.08453	-771.77234	-28.27779	564.90948	-716.24255	15.40877	524.02063	-809.01093	-38.14911	481.29422	-772.22852	-7.03731	203.16570	-666.53931	-68.13177	161.20569	-624.88080	-78.26913	159.03661	-563.64063	-42.26862	163.01070	-603.93951	18.22437	167.48102	-722.10065	75.34059	218.76523	-675.65723	54.73477	159.93913	-795.67865	55.15749	173.70354	-733.71942	279.85123	875.45764	-677.00702	212.02959	824.31451	-774.08636	277.45007	743.20679	-790.10785	249.88333	632.25580	-746.82013	142.51231	572.02844	-784.66669	245.23111	571.43506	-726.05164	204.54033	535.58398	-817.73853	256.24930	494.94644	-775.02582	224.66550	202.18265	-667.51245	300.21078	158.66373	-629.57727	307.98386	161.26529	-562.60553	262.66068	165.61417	-596.09760	224.81668	174.40866	-716.27863	155.46428	218.84991	-676.09918	173.93159	159.69034	-798.02020	173.80647	182.72145	-528.08618	303.96512	146.13414	-517.80109	-73.08614	142.63130	-875.85632	-78.96985	141.16617	-882.31659	296.21161	144.51985	
68	1.340	-350.31061	122.05421	1725.56982	-516.12927	-57.79953	1495.81763	-562.36975	281.99612	1494.51990	-527.11768	108.18412	1350.41858	-686.31415	-10.31445	1041.73657	-682.47156	212.58823	1053.40674	-883.99084	91.98669	1063.42615	-739.22192	-70.32713	855.87872	-677.38550	-7.90893	805.59888	-763.88788	-58.29584	703.10754	-767.88489	-31.90017	612.31335	-748.92242	76.91887	572.01733	-774.05078	-28.40541	564.70831	-718.16461	15.11691	524.13300	-810.72577	-38.35683	481.01422	-772.40765	-7.37571	202.90982	-666.58954	-68.19012	161.14455	-624.88336	-78.35764	158.89853	-563.56293	-41.95852	162.90750	-603.94232	18.22652	167.49548	-722.40973	75.04839	218.85390	-675.91443	54.70034	160.28871	-795.85419	54.85524	173.69553	-736.51215	279.38440	875.19244	-679.99664	211.36487	824.13263	-776.57520	277.50565	742.86426	-792.08765	249.72592	631.89008	-748.63092	142.29909	571.76312	-786.35797	244.95778	571.13135	-727.63544	204.25978	535.57727	-819.01941	256.25528	494.63992	-775.03754	224.62943	202.08064	-667.45398	300.32611	158.70815	-629.53448	307.98260	161.32864	-562.47772	262.44263	165.48544	-596.06891	224.71471	174.13840	-716.33582	155.44150	218.85483	-676.09314	173.95598	159.67422	-798.06219	173.81046	182.69446	-528.00635	303.91895	146.17725	-517.78235	-73.15006	142.65082	-875.89368	-78.96472	141.15796	-882.31158	296.21335	144.51180	
69	1.360	-340.58963	121.95675	1716.38269	-508.76956	-57.65494	1488.35767	-554.57794	281.95746	1488.31982	-524.70959	107.75902	1344.32422	-689.75330	-10.78723	1041.20020	-685.63251	211.96541	1052.15076	-887.30127	92.07876	1063.85681	-742.96436	-70.73436	855.74170	-680.83612	-8.55882	805.34973	-767.15741	-58.81029	702.86346	-770.45215	-32.06417	612.17334	-750.97156	76.68407	571.92926	-776.26117	-28.54654	564.44220	-720.07800	14.82665	524.27380	-812.36395	-38.53765	480.68127	-772.55597	-7.69560	202.63339	-666.63037	-68.25436	161.06183	-624.87140	-78.49475	158.74957	-563.47150	-41.64142	162.82510	-603.97375	18.23607	167.51086	-722.80078	74.67020	218.90712	-676.15417	54.66743	160.54698	-796.04785	54.52094	173.71298	-739.28571	278.87314	874.88855	-682.96094	210.69511	823.89172	-778.92572	277.67709	742.57153	-794.00525	249.65044	631.53082	-750.49969	142.11884	571.46796	-788.02850	244.76546	570.82806	-729.15576	204.00371	535.61884	-820.28131	256.33435	494.38715	-775.04504	224.60725	201.98535	-667.36536	300.44482	158.73682	-629.50018	307.95560	161.34412	-562.35870	262.21762	165.31584	-596.05304	224.62282	173.90826	-716.43042	155.40553	218.89796	-676.10388	173.98122	159.64598	-798.12183	173.89931	182.61340	-527.96893	303.88638	146.19910	-517.77905	-73.12608	142.62666	-875.90570	-78.98106	141.14168	-882.39569	296.16177	144.51053	
